<svg width="526" height="168" viewBox="0 0 526 168" fill="none" xmlns="http://www.w3.org/2000/svg">
<path fill-rule="evenodd" clip-rule="evenodd" d="M89.3497 1.36589C86.6097 2.55889 62.4057 23.6399 52.1037 33.8079C49.5987 36.2809 47.7107 37.2379 45.1967 37.3079C41.8167 37.4039 41.4867 37.0349 30.9347 21.4059C24.9227 12.5009 18.6687 4.37889 16.8307 3.08989C11.0537 -0.961106 3.67166 1.45289 1.09266 8.23489C-0.35334 12.0389 -0.36934 127.936 1.07566 133.139C1.87566 136.019 3.15266 137.481 6.66666 139.541C11.2097 142.203 11.2357 142.206 16.3747 140.557C19.4957 139.556 23.3337 137.229 26.1087 134.655C28.6287 132.318 32.4757 128.831 34.6587 126.906C42.4917 119.999 68.5607 96.5569 70.1437 94.9979C71.0327 94.1219 74.8267 90.7059 78.5747 87.4059C82.3237 84.1059 86.1097 80.7309 86.9887 79.9059C87.8677 79.0809 92.3987 75.0309 97.0577 70.9059C101.716 66.7809 105.753 63.1219 106.028 62.7749C106.303 62.4279 108.502 60.4989 110.915 58.4899L115.302 54.8349L121.222 68.1209C127.92 83.1489 131.279 90.6039 133.967 96.4059C134.986 98.6059 136.767 102.544 137.924 105.156C139.081 107.769 140.877 111.819 141.915 114.156C142.952 116.494 145.284 121.781 147.096 125.906C152.485 138.173 157.103 141.573 164.295 138.568C170.958 135.784 171.028 135.081 171.028 70.8539C171.028 22.9159 170.795 13.4979 169.522 9.88989C165.356 -1.91911 154.855 -3.24111 143.927 6.66789C120.329 28.0659 120.038 28.2969 120.019 25.6559C120.014 24.9689 118.903 22.1559 117.55 19.4059C116.197 16.6559 115.076 13.9319 115.059 13.3529C115.042 12.7739 113.663 10.4439 111.996 8.17589C106.689 0.959895 96.9897 -1.95611 89.3497 1.36589ZM344.028 8.51289C344.028 14.4099 343.84 15.0439 342.278 14.4089C334.271 11.1549 328.853 12.0639 324.119 17.4549C321.454 20.4909 321.028 21.7449 321.028 26.5579C321.028 31.7099 321.328 32.4409 324.91 36.0239C328.478 39.5909 329.238 39.9059 334.288 39.9059C337.953 39.9059 340.198 39.4059 341.028 38.4059C342.623 36.4839 344.028 36.4839 344.028 38.4059C344.028 39.3389 344.972 39.9059 346.528 39.9059H349.028V20.9059V1.90589H346.528C344.114 1.90589 344.028 2.13189 344.028 8.51289ZM213.056 12.9739C211.697 13.5409 210.241 14.5459 209.822 15.2059C209.303 16.0209 209.054 15.8449 209.043 14.6559C209.032 13.3779 208.211 12.9059 205.999 12.9059H202.97L203.249 26.1559L203.528 39.4059L206.176 39.7129L208.825 40.0189L209.176 31.0659C209.585 20.6639 211.143 17.9059 216.612 17.9059C222.064 17.9059 223.028 19.7939 223.028 30.4769V39.9059H226.028H229.028V30.9059C229.028 20.4439 230.481 17.9059 236.471 17.9059C241.723 17.9059 243.028 20.5509 243.028 31.1949V40.0389L245.778 39.7219C248.501 39.4089 248.531 39.3239 248.817 31.2289C249.054 24.5449 248.715 22.2179 246.962 18.4889C245.176 14.6889 244.166 13.7509 240.923 12.8779C236.505 11.6879 230.071 12.9439 228.039 15.3929C226.976 16.6739 226.601 16.6099 225.172 14.9079C223.216 12.5789 216.551 11.5149 213.056 12.9739ZM300.149 12.9919C298.29 13.3849 296.385 14.3139 295.914 15.0559C295.251 16.1019 295.055 16.0119 295.043 14.6559C295.032 13.3779 294.211 12.9059 291.999 12.9059H288.97L289.249 26.1559L289.528 39.4059L292.18 39.7129L294.831 40.0199L295.18 30.5049C295.568 19.9039 296.69 17.9989 302.587 17.9379C308.373 17.8779 309.378 19.5959 309.848 30.3419L310.271 40.0149L312.9 39.7109C315.244 39.4389 315.564 38.9199 315.858 34.9059C316.394 27.5889 315.059 18.6059 313.076 16.1869C310.888 13.5179 304.791 12.0109 300.149 12.9919ZM365.507 12.8369C360.62 14.0059 357.308 16.7499 355.585 21.0559C353.346 26.6499 354.405 31.1669 359.115 36.1179C362.937 40.1359 362.958 40.1429 369.431 39.7309C375.086 39.3709 376.291 38.9269 378.832 36.2679C382.318 32.6209 383.501 27.3759 382.052 21.9939C380.911 17.7589 376.096 12.9059 373.033 12.9059C372.02 12.9059 370.592 12.7279 369.86 12.5099C369.127 12.2929 367.169 12.4399 365.507 12.8369ZM256.028 23.1169C256.028 33.1689 256.111 33.5509 258.972 36.6829C261.511 39.4629 262.579 39.9059 266.749 39.9059C269.506 39.9059 272.538 39.2369 273.805 38.3489C275.829 36.9319 276.028 36.9379 276.028 38.4159C276.028 39.5959 276.778 39.9529 278.778 39.7219L281.528 39.4059L281.807 26.1559L282.086 12.9059H279.154H276.221L275.875 22.4429C275.617 29.5369 275.144 32.2299 274.028 32.9519C271.353 34.6849 267.806 35.2139 265.138 34.2789C262.61 33.3939 262.512 33.0499 262.028 23.3849L261.528 13.4059L258.778 13.0899L256.028 12.7729V23.1169ZM85.0277 25.5939C79.2527 30.8809 72.0347 37.5019 68.9877 40.3069C58.5907 49.8779 55.6377 51.9639 50.2787 53.5209C45.8077 54.8209 44.0817 54.8789 39.8647 53.8669C33.2627 52.2829 29.2587 48.6379 21.9717 37.5779L16.0277 28.5549V75.3579V122.161L20.7777 117.857C23.3907 115.49 29.5777 109.869 34.5277 105.366C46.1877 94.7579 65.5707 77.3009 69.9817 73.4339C71.8807 71.7689 76.3997 67.7059 80.0227 64.4059C83.6457 61.1059 89.1107 56.1559 92.1667 53.4059C104.376 42.4199 106.709 40.2299 107.397 39.1189C107.79 38.4819 106.968 35.4729 105.57 32.4329C104.172 29.3929 101.89 24.4309 100.499 21.4059C99.1077 18.3809 97.4197 15.9229 96.7487 15.9429C96.0767 15.9629 90.8027 20.3059 85.0277 25.5939ZM330.256 19.1359C327.553 20.4389 326.568 23.6809 327.371 28.6289C328.601 36.2119 338.195 37.2079 342.3 30.1789C343.966 27.3269 344.029 26.5519 342.86 23.3179C341.031 18.2589 335.728 16.4989 330.256 19.1359ZM362.889 19.8179C361.017 21.3339 360.528 22.6979 360.528 26.4059C360.528 30.1139 361.017 31.4779 362.889 32.9939C368.548 37.5769 377.028 33.6259 377.028 26.4059C377.028 19.1859 368.548 15.2349 362.889 19.8179ZM145.53 27.1389C126.656 44.2869 127.664 43.0789 129.429 46.4329C130.29 48.0679 132.166 52.1059 133.598 55.4059C135.03 58.7059 136.814 62.7559 137.562 64.4059C138.31 66.0559 140.1 70.1059 141.54 73.4059C142.979 76.7059 144.775 80.7559 145.531 82.4059C147.374 86.4329 150.627 93.7209 152.226 97.4059C153.361 100.021 153.563 97.8049 153.799 80.1559C153.948 69.0189 153.948 50.8979 153.799 39.8889L153.528 19.8719L145.53 27.1389ZM390.028 53.3729V62.9059H384.028H378.028V71.9059V80.9059H384.028H390.028V100.54C390.028 113.098 390.468 121.657 391.25 124.29C393.084 130.466 400.36 137.279 407.265 139.286C414.289 141.329 423.666 141.358 430.54 139.359C438.037 137.18 438.42 136.408 435.517 129.345C434.174 126.079 433.065 122.829 433.052 122.125C433.013 120.049 430.61 119.722 427.462 121.364C425.848 122.205 423.681 122.896 422.646 122.9C419.742 122.909 414.324 119.14 413.655 116.645C413.325 115.413 413.049 106.885 413.042 97.6919L413.028 80.9779L422.778 80.6919L432.528 80.4059V71.9059V63.4059L422.815 63.1199L413.102 62.8339L412.815 53.6199L412.528 44.4059L401.278 44.1229L390.028 43.8399V53.3729ZM224.303 61.0059C216.462 61.9189 204.311 66.5099 202.613 69.2019C201.79 70.5079 202.413 72.5429 205.431 78.4089L209.306 85.9399L212.816 83.8689C214.746 82.7299 219.971 80.9319 224.427 79.8739C231.72 78.1419 232.996 78.0909 237.224 79.3639C239.807 80.1419 242.84 81.2699 243.964 81.8719C246.423 83.1879 249.027 87.9349 249.03 91.1059C249.032 93.3019 248.741 93.3909 242.607 93.0739C232.646 92.5589 215.573 94.5859 211.271 96.7929C202.887 101.094 198.959 106.714 198.32 115.316C197.225 130.058 209.699 140.854 227.874 140.894C235.7 140.912 243.92 138.214 247.769 134.365L251.028 131.106V135.54V139.974L261.778 139.69L272.528 139.406L272.796 114.618C273.128 83.8349 271.963 77.8419 264.087 69.7909C259.483 65.0849 251.979 61.9279 242.927 60.8869C238.308 60.3559 233.853 59.9759 233.028 60.0429C232.203 60.1109 228.277 60.5439 224.303 61.0059ZM326.765 61.0049C320.936 61.8469 312.147 66.1269 311.886 68.2509C311.808 68.8859 311.471 67.6059 311.136 65.4059L310.528 61.4059H299.528H288.528L288.269 114.656L288.01 167.906H300.019H312.028V150.906C312.028 141.556 312.417 133.906 312.893 133.906C313.369 133.906 314.921 134.821 316.342 135.938C325.135 142.855 345.823 142.271 356.681 134.801C369.65 125.878 375.871 110.005 373.112 92.8769C369.463 70.2269 350.969 57.5079 326.765 61.0049ZM474.028 61.0799C461.044 62.9319 449.904 71.2149 443.925 83.4619C440.799 89.8669 440.535 91.1439 440.532 99.9059C440.527 112.763 443.163 119.792 450.952 127.697C454.047 130.837 458.399 134.385 460.623 135.582C473.635 142.584 493.545 142.508 506.246 135.408C512.716 131.791 519.131 125.03 522.613 118.158C525.353 112.751 525.528 111.687 525.52 100.406C525.513 89.0959 525.343 88.0759 522.567 82.6679C516.518 70.8809 505.136 62.9239 491.507 60.9539C483.569 59.8069 482.919 59.8119 474.028 61.0799ZM322.055 81.6579C316.941 84.2319 312.434 90.7209 311.715 96.5459C309.992 110.493 317.308 120.518 330.028 121.64C335.719 122.142 342.162 118.977 346.47 113.563C349.387 109.898 349.528 109.29 349.528 100.406C349.528 91.5099 349.39 90.9189 346.457 87.2489C344.768 85.1349 341.843 82.6189 339.957 81.6579C335.472 79.3709 326.598 79.3709 322.055 81.6579ZM475.029 81.0289C471.508 82.4329 468.152 85.7849 465.931 90.1159C463.216 95.4099 463.334 105.625 466.174 111.192C468.635 116.017 469.974 117.269 475.528 119.939C483.671 123.854 493.395 121.313 498.509 113.934C500.818 110.601 501.533 108.331 501.853 103.321C502.076 99.8149 501.959 95.3529 501.594 93.4049C500.784 89.0909 495.712 83.0899 491.326 81.2569C487.594 79.6979 478.68 79.5739 475.029 81.0289ZM226.313 108.845C219.35 112.036 219.204 119.675 226.039 123.211C230.072 125.298 237.763 125.124 242.491 122.838C246.795 120.758 250.189 115.251 249.825 110.938L249.528 107.406L240.028 107.16C232.392 106.962 229.701 107.293 226.313 108.845Z" fill="#EE7B00"/>
</svg>
