<svg width="487" height="101" viewBox="0 0 487 101" fill="none" xmlns="http://www.w3.org/2000/svg">
<path fill-rule="evenodd" clip-rule="evenodd" d="M257.893 33.709C249.746 36.638 245.631 43.405 246.5 52.447C248.031 68.38 267.866 72.862 276.982 59.334C281.27 52.971 279.437 41.347 273.379 36.489C269.114 33.069 262.819 31.939 257.893 33.709ZM465.531 33.217C457.596 35.126 452.789 41.59 452.789 50.35C452.789 61.079 460.231 67.92 470.935 67.033C477.51 66.487 480.984 64.149 484.006 58.236C486.64 53.08 486.855 48.626 484.718 43.51C481.312 35.358 473.67 31.259 465.531 33.217ZM118.256 50.256V67.256H121.706H125.156L125.456 61.506L125.756 55.756L130.492 55.212C139.364 54.192 144.222 47.417 141.242 40.221C139.137 35.14 135.031 33.264 126.006 33.26L118.256 33.256V50.256ZM146.256 50.256V67.256H157.756H169.256V63.756V60.256H161.756H154.256V46.756V33.256H150.256H146.256V50.256ZM184.343 35.448C176.045 56.547 172.256 66.364 172.256 66.765C172.256 67.035 174.024 67.256 176.184 67.256C180.546 67.256 179.976 68.23 186.288 50.006C187.574 46.293 188.88 43.259 189.191 43.263C189.502 43.267 191.583 48.554 193.815 55.013L197.874 66.756L202.152 67.068C207.185 67.435 207.498 69.471 199.345 48.756L193.442 33.756L189.346 33.448C185.85 33.186 185.117 33.479 184.343 35.448ZM211.256 50.256V67.256H214.756H218.256V57.256C218.256 51.756 218.594 47.268 219.006 47.283C219.418 47.298 223.032 51.798 227.035 57.283C233.836 66.6 234.543 67.256 237.785 67.256H241.256V50.256V33.256H237.291H233.326L233.041 43.366L232.756 53.477L225.382 43.366C218.554 34.005 217.758 33.256 214.632 33.256H211.256V50.256ZM324.256 50.157V67.256H328.256H332.256V61.256V55.256H336.533C343.822 55.256 348.176 51.136 348.224 44.193C348.251 40.385 347.749 39.144 345.192 36.693C342.346 33.966 341.488 33.731 333.192 33.407L324.256 33.057V50.157ZM352.256 50.288V67.319L364.006 67.038L375.756 66.756L376.066 63.549L376.376 60.342L368.566 60.049L360.756 59.756L360.477 46.506L360.198 33.256H356.227H352.256V50.288ZM385.456 49.218C382.046 57.998 379.256 65.648 379.256 66.218C379.256 66.789 380.948 67.256 383.016 67.256H386.776L391.169 54.666C396.202 40.238 395.357 39.998 401.179 57.506L404.421 67.256H408.763H413.105L409.089 57.006C406.879 51.368 403.936 43.719 402.548 40.006L400.024 33.256H395.84H391.656L385.456 49.218ZM417.256 50.256V67.256H421.222H425.188L425.472 56.841L425.756 46.426L433.256 56.886C440.53 67.03 440.861 67.337 444.256 67.051L447.756 66.756L448.03 50.006L448.304 33.256H444.315H440.326L440.041 43.506L439.756 53.756L432.256 43.533C425.075 33.746 424.596 33.309 421.006 33.283L417.256 33.256V50.256ZM125.256 44.197C125.256 48.789 126.202 49.646 130.281 48.75C132.315 48.304 133.451 47.326 133.869 45.663C134.704 42.337 132.689 40.256 128.634 40.256C125.368 40.256 125.256 40.387 125.256 44.197ZM256.845 43.333C253.132 47.746 253.267 53.421 257.179 57.333C258.941 59.095 261.156 60.256 262.756 60.256C266.796 60.256 271.256 55.277 271.256 50.767C271.256 41.121 262.504 36.607 256.845 43.333ZM332.256 44.756C332.256 48.772 332.501 49.256 334.533 49.256C337.551 49.256 341.256 46.58 341.256 44.399C341.256 41.745 339.208 40.256 335.556 40.256C332.312 40.256 332.256 40.332 332.256 44.756ZM464.517 41.785C463.316 42.627 461.903 44.877 461.375 46.785C458.68 56.548 468.177 64.426 474.735 57.868C482.893 49.71 473.749 35.319 464.517 41.785Z" fill="#001651"/>
<path fill-rule="evenodd" clip-rule="evenodd" d="M44.256 43.25V86.5L42.089 85.061C36.468 81.329 34.658 71.707 38.3 64.913C39.895 61.936 40.279 59.636 40.05 54.428L39.756 47.756L34.114 53.256C25.571 61.583 23.296 70.942 27.246 81.501C30.618 90.512 39.943 97.844 50.506 99.788L54.256 100.479V57.367C54.256 33.656 54.628 14.256 55.082 14.256C56.187 14.256 59.714 18.19 61.214 21.096C63.108 24.764 62.687 31.86 60.339 35.839C58.806 38.438 58.256 41.081 58.256 45.848C58.256 53.205 58.821 53.312 65.086 47.142C71.887 40.444 74.804 29.855 72.306 20.933C69.527 11.008 59.281 2.273 48.506 0.643002L44.256 0V43.25ZM24.256 8.626C19.024 10.062 11.256 14.745 11.256 16.464C11.256 17.114 12.415 18.857 13.832 20.336C16.314 22.926 16.711 23.006 24.582 22.519C30.679 22.141 33.709 22.411 36.506 23.583L40.256 25.154V16.83V8.506L37.131 7.881C32.755 7.006 29.466 7.196 24.256 8.626ZM79.442 14.564C76.308 17.797 76.258 17.993 77.233 23.137C78.163 28.038 77.607 33.571 75.683 38.586C75.117 40.06 75.98 40.256 83.042 40.256C89.414 40.256 91.166 39.934 91.649 38.674C92.706 35.921 92.308 28.745 90.825 23.818C89.353 18.928 84.842 11.256 83.438 11.256C83.004 11.256 81.205 12.745 79.442 14.564ZM20.25 27.13C9.933 30.515 2.505 39.59 0.673 51.048L0 55.256H12.581H25.161L30.161 50.256L35.161 45.256H24.708C18.96 45.256 14.256 44.884 14.256 44.43C14.256 43.349 18.169 39.808 20.94 38.381C23.831 36.892 31.215 36.972 33.884 38.521C35.055 39.2 36.967 40.334 38.134 41.041C40.209 42.298 40.256 42.186 40.256 35.952C40.256 29.974 40.085 29.498 37.506 28.301C34.116 26.727 23.642 26.017 20.25 27.13ZM293.485 33.925C289.589 35.493 288.423 44.49 291.757 47.257C292.886 48.194 292.601 48.873 290.158 51.076C288.285 52.765 286.969 55.125 286.598 57.46C286.089 60.659 286.424 61.578 289.056 64.21C291.612 66.766 292.878 67.255 296.929 67.25C299.584 67.246 302.97 66.61 304.455 65.836C306.777 64.624 307.317 64.625 308.327 65.842C308.974 66.621 311.263 67.256 313.426 67.256H317.35L314.286 63.443C311.284 59.707 311.255 59.566 312.832 56.405C313.717 54.631 314.188 52.522 313.88 51.718C313.026 49.494 309.158 49.913 308.535 52.297C307.792 55.138 306.598 54.459 300.942 47.982C297.836 44.424 296.23 41.765 296.602 40.795C297.272 39.05 301.455 38.757 304.263 40.26C305.75 41.056 306.466 40.797 307.728 39.01C309.213 36.904 309.177 36.641 307.176 35.006C305.109 33.317 296.655 32.65 293.485 33.925ZM68.597 49.822L63.437 55.256H73.847C79.572 55.256 84.256 55.666 84.256 56.167C84.256 57.924 78.163 62.183 74.727 62.828C69.766 63.758 64.785 62.572 61.285 59.627L58.256 57.078V64.139V71.2L63.923 72.848C71.046 74.918 77.955 74.209 83.753 70.811C91.384 66.339 96.917 57.911 97.951 49.188L98.535 44.256L86.145 44.322L73.756 44.389L68.597 49.822ZM294.088 55.726C292.581 59.032 294.441 61.256 298.712 61.256C303.395 61.256 303.678 60.286 300.077 56.572C296.23 52.603 295.554 52.507 294.088 55.726ZM6.716 63.676C5.515 71.682 8.95 82.964 13.968 87.498C15.818 89.169 16.015 89.117 18.794 86.216C21.568 83.321 21.697 82.772 21.788 73.473C21.841 68.129 22.246 62.743 22.687 61.506C23.476 59.292 23.359 59.256 15.434 59.256H7.379L6.716 63.676ZM58.466 83.507L58.756 91.698L63.004 92.535C68.647 93.648 77.949 91.251 83.913 87.148L88.443 84.031L84.719 80.218C81.518 76.94 80.654 76.535 78.561 77.33C74.924 78.713 67.054 78.449 62.342 76.786L58.176 75.317L58.466 83.507Z" fill="#FF2732"/>
</svg>
