<svg width="624" height="168" viewBox="0 0 624 168" fill="none" xmlns="http://www.w3.org/2000/svg">
<path fill-rule="evenodd" clip-rule="evenodd" d="M30.898 15.5011L2.296 31.1911L31.148 31.4561C47.017 31.6021 73.163 31.6021 89.25 31.4561L118.5 31.1911L89.608 15.6911C73.717 7.16615 60.442 0.106148 60.108 0.00114808C59.773 -0.102852 46.629 6.87215 30.898 15.5011ZM0 106.691V167.691H60.5H121V106.691V45.6911H60.5H0V106.691ZM24.035 71.6251C22.626 74.2591 22.626 139.123 24.035 141.757C25.029 143.614 26.5 143.691 60.928 143.691C92.703 143.691 96.855 143.511 97.393 142.109C98.185 140.044 98.185 73.3381 97.393 71.2731C96.855 69.8711 92.703 69.6911 60.928 69.6911C26.5 69.6911 25.029 69.7681 24.035 71.6251Z" fill="#D12329"/>
<path fill-rule="evenodd" clip-rule="evenodd" d="M205.867 59.2001C192.829 61.7981 180.498 70.0341 174.632 80.0651C166.395 94.1481 167.326 114.786 176.757 127.167C184.578 137.434 194.709 142.853 209.523 144.694C218.651 145.828 231.537 144.785 238.597 142.341C242.108 141.125 242.632 140.427 245.155 133.605C248.339 124.994 248.759 121.587 245.992 126.824C243.242 132.028 235.668 138.308 229.786 140.262C219.36 143.725 204.965 141.597 196.825 135.388C191.361 131.221 185.982 124.128 183.621 117.977C181.209 111.694 180.325 95.7261 181.993 88.5591C186.646 68.5641 205.877 56.9571 225.869 62.0791C235.162 64.4601 239.025 67.4801 243.772 76.0771L246.044 80.1911L245.41 71.6911C245.061 67.0161 244.251 62.6331 243.611 61.9501C242.226 60.4731 224.599 57.6661 217.5 57.7911C214.75 57.8391 209.515 58.4741 205.867 59.2001ZM583.75 60.2131C581.688 61.6151 580 63.3592 580 64.0882C580 65.3372 561.358 115.481 555.563 129.822C552.522 137.346 549.607 140.567 544.815 141.702C542.655 142.213 546.028 142.492 554.5 142.503C563.687 142.514 566.621 142.257 564.501 141.625C559.692 140.191 558.922 138.346 560.636 132.357C564.532 118.749 567.295 111.603 569.02 110.68C571.011 109.615 591.813 109.298 594.408 110.294C595.89 110.863 604 134.283 604 137.995C604 139.877 602.73 140.758 598.587 141.748C596.831 142.168 602.184 142.492 611 142.498C622.944 142.508 625.697 142.282 623 141.516C618.866 140.34 616.343 138.255 614.32 134.342C613.508 132.773 607.462 115.672 600.883 96.3401C594.305 77.0081 588.603 60.3971 588.211 59.4271C587.558 57.8061 587.194 57.8711 583.75 60.2131ZM422.5 59.6911C414.25 60.0111 408.738 60.3671 410.25 60.4821C411.762 60.5971 413.9 61.5911 415 62.6911C416.926 64.6171 417 66.0241 417 100.609C417 120.364 416.709 137.286 416.353 138.212C415.998 139.139 413.86 140.719 411.603 141.724C407.513 143.544 407.597 143.55 437.623 143.62L467.746 143.691L469.782 134.941C470.902 130.129 471.714 126.084 471.587 125.952C471.46 125.821 469.582 128.296 467.414 131.452C464.624 135.513 462.452 137.54 459.986 138.385C455.478 139.928 437.525 139.928 433.004 138.385C427.921 136.649 426.88 132.58 427.223 115.779L427.5 102.191L438.602 101.91C450.965 101.596 451.504 101.836 453.645 108.582C454.632 111.693 454.791 110.396 454.797 99.1911C454.803 87.2641 454.705 86.5622 453.606 90.6852C451.958 96.8652 449.834 97.7561 437.5 97.4441L427.5 97.1911V80.1911V63.1911H440.547C455.748 63.1911 457.95 64.0631 461.177 71.3581C462.272 73.8331 463.354 75.6701 463.583 75.4421C463.811 75.2131 463.479 71.3511 462.843 66.8581L461.688 58.6911L449.594 58.9001C442.942 59.0151 430.75 59.3711 422.5 59.6911ZM476.5 59.6911C476.84 60.2411 478.641 60.6911 480.502 60.6911C486.991 60.6911 487 60.7491 487 101.857V138.578L484.777 140.134C483.555 140.99 481.332 141.691 479.837 141.691C478.341 141.691 476.84 142.141 476.5 142.691C475.71 143.969 529.879 144.068 533.228 142.795C535.156 142.061 535.915 140.5 537.394 134.229C538.388 130.011 538.942 126.3 538.624 125.982C538.307 125.665 537.736 126.257 537.355 127.298C536.975 128.339 535.377 131.089 533.805 133.41C530.196 138.737 525.996 139.995 513.38 139.531C503.263 139.159 499.2 137.343 497.873 132.601C496.983 129.417 497 67.9072 497.893 64.7002C498.336 63.1062 499.651 61.8901 501.543 61.3251C508.85 59.1401 507.694 58.8231 492.191 58.7591C481.556 58.7151 476.097 59.0391 476.5 59.6911ZM254.525 60.7511C259.727 62.2651 263.454 67.5421 274.393 88.8841L285 109.577V123.523C285 139.89 284.467 141.082 276.5 142.547C272.641 143.257 275.722 143.473 290 143.494C307.15 143.519 308.112 143.427 303.177 142.233C300.249 141.524 297.324 140.416 296.677 139.77C295.928 139.022 295.294 132.887 294.934 122.893L294.369 107.191L284.184 87.0821C278.583 76.0221 274 65.9881 274 64.7841C274 63.2701 275.003 62.1581 277.25 61.1821C280.238 59.8831 279.333 59.7731 266 59.8201C255.952 59.8561 252.429 60.1421 254.525 60.7511ZM308.034 60.6131C309.978 60.9941 312.115 61.6441 312.784 62.0571C314.885 63.3561 314.123 67.4961 310.434 74.8211C308.417 78.8281 307.438 81.7122 308.181 81.4642C309.543 81.0102 323 61.9961 323 60.5261C323 60.0671 318.837 59.7431 313.75 59.8061C307.322 59.8861 305.578 60.1321 308.034 60.6131ZM331.581 60.7661C337.815 62.5761 338.448 64.3051 339 81.0421L339.5 96.1911L344.226 96.4951L348.951 96.7991L349.226 79.9951L349.5 63.1911H357.667C365.132 63.1911 366.199 63.4491 370.078 66.1911C375.862 70.2801 378.49 75.6181 378.445 83.1911C378.42 87.4571 377.745 90.4611 376.111 93.5851L373.813 97.9782L376.991 97.3431C384.463 95.8481 389.286 89.1351 389.286 80.2291C389.286 74.0861 386.304 67.7551 381.95 64.6561C376.005 60.4221 371.038 59.6851 349.091 59.7811C335.212 59.8421 329.504 60.1631 331.581 60.7661ZM575.681 88.3461C572.597 96.9571 570.309 104.382 570.596 104.846C570.883 105.311 575.831 105.691 581.59 105.691C589.868 105.691 592.181 105.384 592.625 104.225C593.453 102.069 583.622 72.6911 582.072 72.6911C581.641 72.6911 578.765 79.7361 575.681 88.3461ZM339.667 102.358C339.3 102.724 339 110.738 339 120.167C339 132.312 338.636 137.801 337.75 138.998C337.063 139.928 334.475 141.319 332 142.091C327.731 143.421 328.347 143.495 344 143.524C359.37 143.554 361.815 142.977 353.715 141.234C349.589 140.347 348.917 137.215 349.225 120.309L349.5 105.191L354.557 104.895C361.294 104.502 363.108 106.049 371.581 119.415C380.174 132.971 384.22 137.884 389.003 140.572C393.237 142.952 405 144.664 405 142.901C405 142.31 404.112 141.544 403.028 141.2C399.285 140.012 389.476 129.162 383.582 119.691C372.799 102.364 371.663 101.691 353.199 101.691C346.123 101.691 340.033 101.991 339.667 102.358Z" fill="black" fill-opacity="0.946"/>
</svg>
