<svg width="281" height="53" viewBox="0 0 281 53" fill="none" xmlns="http://www.w3.org/2000/svg">
<path fill-rule="evenodd" clip-rule="evenodd" d="M99.086 25.031C91.889 38.753 86 50.453 86 51.031C86 52.564 98.513 52.382 99.761 50.831C100.914 49.397 124.56 4.48 125.556 1.831C126.144 0.268001 125.464 0.0810013 119.193 0.0810013H112.171L99.086 25.031Z" fill="#0038A9"/>
<path fill-rule="evenodd" clip-rule="evenodd" d="M0 25.581V51.081H5.46H10.919L11.21 42.831L11.5 34.581H14.919C18.14 34.581 18.617 35.056 23.206 42.831L28.075 51.081H34.037C37.317 51.081 40 50.806 40 50.47C40 50.134 37.696 46.044 34.879 41.381L29.759 32.904L33.241 30.034C37.949 26.153 39.335 22.388 38.796 14.938C38.397 9.425 37.982 8.453 34.77 5.509C29.966 1.106 25.665 0.0930018 11.75 0.0870018L0 0.0810013V25.581ZM52 25.557V51.081H62.801H73.601L75.767 46.624L77.932 42.167L70.716 41.874L63.5 41.581L63.2 35.831L62.9 30.081H73.45H84V25.581V21.081H73.45H62.9L63.2 15.336L63.5 9.592L68.5 9.558C71.25 9.54 76.563 9.425 80.307 9.303L87.115 9.081L86.807 4.831L86.5 0.581001L69.25 0.307003L52 0.0340004V25.557ZM156.905 8.048C153.932 12.43 151.05 16.019 150.5 16.024C149.95 16.029 147.504 13.105 145.065 9.526C142.625 5.947 140.119 2.595 139.496 2.077C138.701 1.418 136.663 4.328 132.681 11.808L127 22.479V36.78V51.081H132.475H137.949L138.225 35.407L138.5 19.733L144.274 27.407C147.449 31.628 150.207 35.081 150.403 35.081C150.598 35.081 153.4 31.594 156.629 27.331L162.5 19.581L162.775 35.331L163.051 51.081H168.525H174V25.581V0.0810013H168.155H162.311L156.905 8.048ZM193.237 24.79C188.143 38.425 183.98 49.919 183.987 50.331C183.994 50.743 186.382 51.081 189.293 51.081H194.586L196.455 45.581L198.325 40.081H207.537H216.749L218.632 45.331L220.515 50.581L226.258 50.881C229.416 51.046 231.988 51.046 231.974 50.881C231.96 50.716 227.734 39.331 222.583 25.581L213.218 0.581001L207.859 0.290001L202.5 0L193.237 24.79ZM238.331 0.831001C238.578 1.244 241.989 6.903 245.909 13.408L253.038 25.235L245.519 37.711C241.384 44.573 238 50.389 238 50.634C238 50.88 240.664 51.081 243.919 51.081H249.838L254.517 42.498C259.813 32.782 258.917 32.631 265.373 44.331L269.098 51.081H275.049C278.322 51.081 281 50.867 281 50.606C281 50.345 277.576 44.504 273.39 37.626L265.78 25.12L273.325 12.85L280.87 0.581001L275.804 0.274002C273.018 0.105002 270.184 0.180002 269.506 0.441002C268.827 0.701002 266.4 4.326 264.11 8.497C261.821 12.668 259.766 16.081 259.542 16.081C259.319 16.081 257.193 12.481 254.818 8.082L250.5 0.0830002L244.191 0.0820007C240.721 0.0810007 238.084 0.418001 238.331 0.831001ZM11.75 9.651C11.337 10.071 11 13.714 11 17.748V25.081H17.5C25.506 25.081 28 23.187 28 17.104C28 13.928 27.478 12.785 25.408 11.429C22.654 9.624 13.01 8.369 11.75 9.651ZM204.647 22.283C203.186 26.297 201.993 29.919 201.995 30.331C201.998 30.743 204.475 31.081 207.5 31.081C210.971 31.081 213 30.658 213 29.934C213 28.446 208.885 16.824 207.99 15.783C207.612 15.343 206.108 18.268 204.647 22.283Z" fill="#DE1726"/>
</svg>
