<svg width="619" height="526" viewBox="0 0 619 526" fill="none" xmlns="http://www.w3.org/2000/svg">
<path fill-rule="evenodd" clip-rule="evenodd" d="M440.344 2.011C392.058 11.895 354.149 51.179 346.321 99.445C345.196 106.381 344.851 118.388 344.848 150.75L344.844 193H331.051H317.259L315.992 188.25C314.229 181.637 306.672 165.967 301.71 158.633C285.69 134.956 261.798 118.368 232.953 110.895C222.882 108.286 201.055 107.3 189.797 108.947C140.526 116.151 99.8925 156.382 92.7835 205C91.2825 215.261 92.1065 238.003 94.2985 246.863C105.317 291.388 141.494 325.503 186.178 333.505C200.226 336.021 221.516 335.194 235.344 331.595C267.4 323.252 294.593 300.934 309.377 270.834C312.259 264.968 315.202 257.881 315.919 255.084L317.222 250H331.03H344.837L345.09 387.75L345.344 525.5H373.344H401.344L401.598 387.75L401.851 250H440.789C466.109 250 479.946 249.644 480.355 248.983C481.753 246.719 495.847 195.45 495.395 194.271C495.01 193.268 485.09 193 448.375 193H401.844L401.859 151.25C401.875 105.947 402.238 102.093 407.471 91.731C417.789 71.301 435.746 58.654 457.905 56.21L464.344 55.5L464.61 27.75L464.876 0L457.11 0.0839996C452.839 0.131 445.294 0.998002 440.344 2.011ZM0.27553 122.316C-0.00846952 123.057 -0.0854666 162.101 0.103533 209.081C0.488533 304.427 0.13353 299.256 7.91453 322.784C21.4935 363.843 53.7265 398.645 93.8435 415.561C110.438 422.558 134.526 427.924 149.594 427.98L154.844 428V400.08V372.159L148.094 371.514C121.207 368.945 100.951 359.363 83.2035 340.818C72.5165 329.651 65.4475 317.196 60.0345 300L57.3595 291.5L56.8515 206.5L56.3435 121.5L28.5685 121.234C6.01553 121.018 0.69553 121.222 0.27553 122.316ZM524.091 276.25L524.344 431.5L552.094 431.766L579.844 432.032V341.016V250H599.359H618.875L618.609 221.75L618.344 193.5L599.094 193.228L579.844 192.957V156.978V121H551.841H523.838L524.091 276.25ZM196.771 159.064C175.171 162.242 155.513 177.829 147.493 198.136C143.559 208.096 142.539 214.309 143.093 224.944C143.892 240.289 149.158 252.824 159.497 263.992C189.721 296.638 242.25 289.467 262.844 249.884C269.289 237.495 271.324 223.629 268.781 209.434C267.354 201.468 260.046 186.714 254.32 180.237C244.935 169.624 231.176 161.978 216.844 159.412C208.51 157.92 204.961 157.859 196.771 159.064Z" fill="#FF6023"/>
</svg>
